<svg width="22" height="22" viewBox="0 0 22 22" fill="none" xmlns="http://www.w3.org/2000/svg">
<path d="M8.1 11.5H7.35H8.1ZM14.9 11.5H15.65H14.9ZM11.5 14.9V15.65V14.9ZM11.5 9.8V10.55V9.8ZM19.3731 8.29034L20.0675 8.00696L19.3731 8.29034ZM13.259 19.8178L13.4134 20.5517L13.259 19.8178ZM9.74101 19.8178L9.58657 20.5517L9.74101 19.8178ZM3.62782 8.28802L2.9335 8.00443H2.9335L3.62782 8.28802ZM3.18222 13.259L2.4483 13.4134L3.18222 13.259ZM9.74101 3.18222L9.58657 2.4483V2.4483L9.74101 3.18222ZM13.259 3.18223L13.4134 2.4483L13.259 3.18223ZM19.3037 8.31869L19.5214 9.0364L19.3037 8.31869ZM3.69527 8.31838L3.91297 7.60067L3.69527 8.31838ZM19.3731 8.29034L18.6787 8.57372C19.0468 9.47564 19.25 10.4632 19.25 11.5H20H20.75C20.75 10.2655 20.5078 9.08572 20.0675 8.00696L19.3731 8.29034ZM20 11.5H19.25C19.25 12.0509 19.1926 12.5875 19.0838 13.1046L19.8178 13.259L20.5517 13.4134C20.6817 12.7954 20.75 12.1553 20.75 11.5H20ZM19.8178 13.259L19.0838 13.1046C18.4543 16.0964 16.0964 18.4543 13.1046 19.0838L13.259 19.8178L13.4134 20.5517C16.9872 19.7997 19.7997 16.9872 20.5517 13.4134L19.8178 13.259ZM13.259 19.8178L13.1046 19.0838C12.5875 19.1926 12.0509 19.25 11.5 19.25V20V20.75C12.1553 20.75 12.7954 20.6817 13.4134 20.5517L13.259 19.8178ZM11.5 20V19.25C10.9491 19.25 10.4125 19.1926 9.89544 19.0838L9.74101 19.8178L9.58657 20.5517C10.2046 20.6817 10.8447 20.75 11.5 20.75V20ZM3 11.5H3.75C3.75 10.4623 3.95353 9.47409 4.32214 8.5716L3.62782 8.28802L2.9335 8.00443C2.49261 9.08387 2.25 10.2645 2.25 11.5H3ZM9.74101 19.8178L9.89544 19.0838C6.90356 18.4543 4.54571 16.0964 3.91615 13.1046L3.18222 13.259L2.4483 13.4134C3.20029 16.9872 6.01278 19.7997 9.58657 20.5517L9.74101 19.8178ZM3.18222 13.259L3.91615 13.1046C3.80735 12.5875 3.75 12.0509 3.75 11.5H3H2.25C2.25 12.1553 2.31825 12.7954 2.4483 13.4134L3.18222 13.259ZM3.62782 8.28802L4.32214 8.5716C5.28176 6.2221 7.36199 4.44924 9.89544 3.91615L9.74101 3.18222L9.58657 2.4483C6.5585 3.08547 4.07838 5.20136 2.9335 8.00443L3.62782 8.28802ZM9.74101 3.18222L9.89544 3.91615C10.4125 3.80735 10.9491 3.75 11.5 3.75V3V2.25C10.8447 2.25 10.2046 2.31825 9.58657 2.4483L9.74101 3.18222ZM11.5 3V3.75C12.0509 3.75 12.5875 3.80735 13.1046 3.91615L13.259 3.18223L13.4134 2.4483C12.7954 2.31825 12.1553 2.25 11.5 2.25V3ZM13.259 3.18223L13.1046 3.91615C15.6388 4.4494 17.7195 6.22317 18.6787 8.57372L19.3731 8.29034L20.0675 8.00696C18.9231 5.20263 16.4424 3.08566 13.4134 2.4483L13.259 3.18223ZM13.259 3.18223L12.5445 3.41021C12.7787 4.14428 13.6443 6.96356 13.9988 9.55079L14.7418 9.449L15.4849 9.3472C15.1118 6.62399 14.2119 3.70123 13.9735 2.95424L13.259 3.18223ZM14.7418 9.449L13.9988 9.55079C14.0937 10.2436 14.15 10.9068 14.15 11.5H14.9H15.65C15.65 10.8181 15.5857 10.0834 15.4849 9.3472L14.7418 9.449ZM19.3037 8.31869L19.086 7.60097C18.1549 7.88337 16.4073 8.37895 14.6057 8.71145L14.7418 9.449L14.8779 10.1865C16.7586 9.83945 18.5666 9.32599 19.5214 9.0364L19.3037 8.31869ZM14.7418 9.449L14.6057 8.71145C13.5123 8.91324 12.425 9.05 11.5 9.05V9.8V10.55C12.5546 10.55 13.7425 10.3961 14.8779 10.1865L14.7418 9.449ZM14.9 11.5H14.15C14.15 12.3793 14.0264 13.4062 13.8404 14.4466L14.5786 14.5786L15.3169 14.7106C15.5106 13.6274 15.65 12.5037 15.65 11.5H14.9ZM14.5786 14.5786L13.8404 14.4466C13.4327 16.7268 12.7473 18.9541 12.5445 19.5898L13.259 19.8178L13.9735 20.0458C14.1826 19.3904 14.8917 17.0888 15.3169 14.7106L14.5786 14.5786ZM19.8178 13.259L19.5898 12.5445C18.9541 12.7473 16.7268 13.4327 14.4466 13.8404L14.5786 14.5786L14.7107 15.3169C17.0888 14.8917 19.3904 14.1826 20.0458 13.9735L19.8178 13.259ZM14.5786 14.5786L14.4466 13.8404C13.4062 14.0264 12.3793 14.15 11.5 14.15V14.9V15.65C12.5037 15.65 13.6274 15.5106 14.7107 15.3169L14.5786 14.5786ZM11.5 14.9V14.15C10.6207 14.15 9.59377 14.0264 8.55336 13.8404L8.42136 14.5786L8.28935 15.3169C9.37262 15.5106 10.4963 15.65 11.5 15.65V14.9ZM8.42136 14.5786L8.55336 13.8404C6.27319 13.4327 4.0459 12.7473 3.41021 12.5445L3.18222 13.259L2.95424 13.9735C3.60961 14.1826 5.91116 14.8917 8.28935 15.3169L8.42136 14.5786ZM8.1 11.5H7.35C7.35 12.5037 7.48938 13.6274 7.68306 14.7106L8.42136 14.5786L9.15965 14.4466C8.97362 13.4062 8.85 12.3793 8.85 11.5H8.1ZM8.42136 14.5786L7.68306 14.7106C8.10828 17.0888 8.81739 19.3904 9.0265 20.0458L9.74101 19.8178L10.4555 19.5898C10.2527 18.9541 9.56734 16.7268 9.15965 14.4466L8.42136 14.5786ZM9.74101 3.18222L9.0265 2.95424C8.78815 3.70123 7.88819 6.62399 7.51513 9.34721L8.25819 9.449L9.00125 9.5508C9.35568 6.96356 10.2213 4.14428 10.4555 3.41021L9.74101 3.18222ZM8.25819 9.449L7.51513 9.34721C7.41427 10.0834 7.35 10.8181 7.35 11.5H8.1H8.85C8.85 10.9068 8.90633 10.2436 9.00125 9.5508L8.25819 9.449ZM11.5 9.8V9.05C10.575 9.05 9.48766 8.91324 8.39431 8.71146L8.25819 9.449L8.12207 10.1865C9.25754 10.3961 10.4454 10.55 11.5 10.55V9.8ZM8.25819 9.449L8.39431 8.71146C6.59201 8.37883 4.84381 7.88302 3.91297 7.60067L3.69527 8.31838L3.47757 9.03609C4.4321 9.32562 6.24072 9.83933 8.12207 10.1865L8.25819 9.449ZM19.3731 8.29034L19.0275 7.62472C19.0447 7.61578 19.0646 7.60746 19.086 7.60097L19.3037 8.31869L19.5214 9.0364C19.5911 9.01525 19.6567 8.98817 19.7188 8.95596L19.3731 8.29034ZM3.62782 8.28802L3.23652 8.92785C3.31048 8.97308 3.39091 9.0098 3.47757 9.03609L3.69527 8.31838L3.91297 7.60067C3.95185 7.61246 3.98775 7.629 4.01911 7.64818L3.62782 8.28802Z" fill="#464451"/>
</svg>
