<svg width="22" height="22" viewBox="0 0 22 22" fill="none" xmlns="http://www.w3.org/2000/svg">
<path d="M16.8333 10.2597V9.74115C16.8333 9.66356 16.8333 9.62476 16.8328 9.59195C16.7973 7.11201 14.7955 5.11024 12.3156 5.07472C12.2828 5.07425 12.244 5.07425 12.1664 5.07425H11.6478M20.0743 10.9079V10.0004C20.0743 9.22617 20.0743 8.83905 20.0451 8.51272C19.7287 4.97926 16.9284 2.17892 13.3949 1.86256C13.0686 1.83334 12.6814 1.83334 11.9072 1.83334L10.9998 1.83334M8.04603 8.45478C7.63057 9.40792 7.84084 10.5182 8.57605 11.2534L10.7731 13.4505C11.5083 14.1857 12.6186 14.396 13.5718 13.9805C14.5249 13.5651 15.6352 13.7753 16.3704 14.5105L17.7071 15.8472C17.7719 15.912 17.8042 15.9444 17.8305 15.9729C18.4749 16.6743 18.4749 17.7524 17.8305 18.4538C17.8042 18.4823 17.7719 18.5147 17.7071 18.5794L16.8946 19.3919C16.233 20.0536 15.2792 20.3313 14.3657 20.1283C8.14195 18.7453 3.28129 13.8846 1.89823 7.66082C1.69525 6.7474 1.973 5.79358 2.63464 5.13193L3.44712 4.31945C3.51188 4.25469 3.54426 4.22232 3.57279 4.1961C4.27418 3.55162 5.35228 3.55162 6.05367 4.1961C6.0822 4.22232 6.11458 4.25469 6.17934 4.31945L7.51602 5.65613C8.25123 6.39135 8.4615 7.50165 8.04603 8.45478Z" stroke="#9932CC" stroke-width="1.5" stroke-linecap="round"/>
</svg>
