<svg width="22" height="22" viewBox="0 0 22 22" fill="none" xmlns="http://www.w3.org/2000/svg">
<path d="M4.51786 7.26819L5.04819 6.73786L4.51786 7.26819ZM2.74967 5.5L3.28 4.96967H3.28L2.74967 5.5ZM3.72233 18.3747L4.16316 17.7679H4.16316L3.72233 18.3747ZM2.70835 17.3607L2.10158 17.8015H2.10158L2.70835 17.3607ZM19.291 17.3607L18.6842 16.9198L18.6842 16.9198L19.291 17.3607ZM18.277 18.3747L17.8362 17.7679H17.8362L18.277 18.3747ZM3.72233 3.62534L3.28149 3.01858V3.01858L3.72233 3.62534ZM2.70835 4.63932L2.10158 4.19848H2.10158L2.70835 4.63932ZM16.102 9.68461C16.401 9.39798 16.4111 8.92321 16.1244 8.62419C15.8378 8.32516 15.363 8.31511 15.064 8.60175L15.583 9.14318L16.102 9.68461ZM20.9094 9.1339C20.9043 8.71972 20.5644 8.38811 20.1502 8.39323C19.736 8.39836 19.4044 8.73827 19.4095 9.15245L20.1594 9.14318L20.9094 9.1339ZM13.7407 3.50655C14.1549 3.51152 14.4947 3.17978 14.4996 2.7656C14.5046 2.35141 14.1728 2.01162 13.7587 2.00666L13.7497 2.75661L13.7407 3.50655ZM2.40228 5.15261L1.72663 4.82704L2.40228 5.15261ZM4.51786 7.26819L5.04819 6.73786L3.28 4.96967L2.74967 5.5L2.21934 6.03033L3.98753 7.79852L4.51786 7.26819ZM4.51786 7.26819L3.98753 7.79852C5.50032 9.3113 6.68713 10.5004 7.73774 11.302C8.80565 12.1167 9.82052 12.6015 10.9997 12.6015V11.8515V11.1015C10.2804 11.1015 9.58209 10.8224 8.64761 10.1094C7.69582 9.38323 6.59096 8.28063 5.04819 6.73786L4.51786 7.26819ZM10.083 2.75V3.5H11.9163V2.75V2H10.083V2.75ZM11.9163 19.25V18.5H10.083V19.25V20H11.9163V19.25ZM10.083 19.25V18.5C8.34767 18.5 7.10642 18.499 6.14628 18.3949C5.20018 18.2924 4.6164 18.0972 4.16316 17.7679L3.72233 18.3747L3.28149 18.9814C4.03305 19.5275 4.91099 19.7699 5.98471 19.8862C7.0444 20.001 8.38109 20 10.083 20V19.25ZM1.83301 11H1.08301C1.08301 12.7019 1.08198 14.0386 1.19679 15.0983C1.31312 16.172 1.55554 17.05 2.10158 17.8015L2.70835 17.3607L3.31511 16.9198C2.98581 16.4666 2.79057 15.8828 2.68806 14.9367C2.58404 13.9766 2.58301 12.7353 2.58301 11H1.83301ZM3.72233 18.3747L4.16316 17.7679C3.83774 17.5315 3.55155 17.2453 3.31511 16.9198L2.70835 17.3607L2.10158 17.8015C2.43054 18.2543 2.82871 18.6525 3.28149 18.9814L3.72233 18.3747ZM20.1663 11H19.4163C19.4163 12.7353 19.4153 13.9766 19.3113 14.9367C19.2088 15.8828 19.0135 16.4666 18.6842 16.9198L19.291 17.3607L19.8978 17.8015C20.4438 17.05 20.6862 16.172 20.8026 15.0983C20.9174 14.0386 20.9163 12.7019 20.9163 11H20.1663ZM11.9163 19.25V20C13.6183 20 14.9549 20.001 16.0146 19.8862C17.0884 19.7699 17.9663 19.5275 18.7179 18.9814L18.277 18.3747L17.8362 17.7679C17.3829 18.0972 16.7992 18.2924 15.8531 18.3949C14.8929 18.499 13.6517 18.5 11.9163 18.5V19.25ZM19.291 17.3607L18.6842 16.9198C18.4478 17.2453 18.1616 17.5315 17.8362 17.7679L18.277 18.3747L18.7179 18.9814C19.1706 18.6525 19.5688 18.2543 19.8978 17.8015L19.291 17.3607ZM10.083 2.75V2C8.38109 2 7.0444 1.99897 5.98471 2.11378C4.91098 2.23011 4.03305 2.47254 3.28149 3.01858L3.72233 3.62534L4.16316 4.2321C4.6164 3.9028 5.20018 3.70756 6.14628 3.60505C7.10642 3.50103 8.34767 3.5 10.083 3.5V2.75ZM3.72233 3.62534L3.28149 3.01858C2.82871 3.34753 2.43054 3.74571 2.10158 4.19848L2.70835 4.63932L3.31511 5.08016C3.55155 4.75473 3.83773 4.46854 4.16316 4.2321L3.72233 3.62534ZM15.583 9.14318L15.064 8.60175C13.1573 10.4295 12.1202 11.1015 10.9997 11.1015V11.8515V12.6015C12.7979 12.6015 14.2415 11.468 16.102 9.68461L15.583 9.14318ZM20.1663 11H20.9163C20.9163 10.3174 20.9164 9.69671 20.9094 9.1339L20.1594 9.14318L19.4095 9.15245C19.4163 9.70415 19.4163 10.315 19.4163 11H20.1663ZM11.9163 2.75V3.5C12.5917 3.5 13.195 3.50001 13.7407 3.50655L13.7497 2.75661L13.7587 2.00666C13.2022 1.99999 12.5893 2 11.9163 2V2.75ZM20.1663 4.58333H19.4163C19.4163 5.18164 18.9313 5.66667 18.333 5.66667V6.41667V7.16667C19.7597 7.16667 20.9163 6.01007 20.9163 4.58333H20.1663ZM18.333 6.41667V5.66667C17.7347 5.66667 17.2497 5.18164 17.2497 4.58333H16.4997H15.7497C15.7497 6.01007 16.9063 7.16667 18.333 7.16667V6.41667ZM16.4997 4.58333H17.2497C17.2497 3.98502 17.7347 3.5 18.333 3.5V2.75V2C16.9063 2 15.7497 3.1566 15.7497 4.58333H16.4997ZM18.333 2.75V3.5C18.9313 3.5 19.4163 3.98502 19.4163 4.58333H20.1663H20.9163C20.9163 3.1566 19.7597 2 18.333 2V2.75ZM1.83301 11H2.58301C2.58301 9.50019 2.5835 8.36634 2.65204 7.45908C2.72044 6.5536 2.85301 5.94497 3.07794 5.47818L2.40228 5.15261L1.72663 4.82704C1.38229 5.54167 1.23021 6.36773 1.1563 7.34608C1.08252 8.32266 1.08301 9.52179 1.08301 11H1.83301ZM2.40228 5.15261L3.07794 5.47818C3.14675 5.33537 3.22519 5.20392 3.31511 5.08016L2.70835 4.63932L2.10158 4.19848C1.9576 4.39665 1.83339 4.60548 1.72663 4.82704L2.40228 5.15261ZM2.74967 5.5L3.28 4.96967L2.93261 4.62228L2.40228 5.15261L1.87195 5.68294L2.21934 6.03033L2.74967 5.5Z" fill="#464451"/>
</svg>
