<svg width="32" height="15" viewBox="0 0 32 15" fill="none" xmlns="http://www.w3.org/2000/svg">
<path d="M1 6.36401C0.447715 6.36401 -4.82823e-08 6.81173 0 7.36401C4.82823e-08 7.9163 0.447715 8.36401 1 8.36401L1 7.36401L1 6.36401ZM31.7071 8.07112C32.0976 7.68059 32.0976 7.04743 31.7071 6.6569L25.3431 0.292944C24.9526 -0.0975806 24.3195 -0.0975806 23.9289 0.292944C23.5384 0.683468 23.5384 1.31663 23.9289 1.70716L29.5858 7.36401L23.9289 13.0209C23.5384 13.4114 23.5384 14.0446 23.9289 14.4351C24.3195 14.8256 24.9526 14.8256 25.3431 14.4351L31.7071 8.07112ZM1 7.36401L1 8.36401L31 8.36401L31 7.36401L31 6.36401L1 6.36401L1 7.36401Z" fill="#9932CC"/>
</svg>
